<?xml version="1.0" encoding="UTF-8"?>
<!DOCTYPE svg PUBLIC "-//W3C//DTD SVG 1.1//EN" "http://www.w3.org/Graphics/SVG/1.1/DTD/svg11.dtd">
<svg xmlns="http://www.w3.org/2000/svg" version="1.1" width="732px" height="341px" style="shape-rendering:geometricPrecision; text-rendering:geometricPrecision; image-rendering:optimizeQuality; fill-rule:evenodd; clip-rule:evenodd" xmlns:xlink="http://www.w3.org/1999/xlink">
<g><path style="opacity:1" fill="#3c307e" d="M 72.5,118.5 C 73.9464,117.387 75.6131,117.22 77.5,118C 79.4257,118.422 80.4257,119.589 80.5,121.5C 79.065,119.599 77.3983,119.266 75.5,120.5C 75.5,119.167 74.8333,118.5 73.5,118.5C 73.1667,118.5 72.8333,118.5 72.5,118.5 Z"/></g>
<g><path style="opacity:1" fill="#4b72e4" d="M 73.5,118.5 C 74.8333,118.5 75.5,119.167 75.5,120.5C 75.5,123.5 75.5,126.5 75.5,129.5C 76.5,129.5 77.5,129.5 78.5,129.5C 76.1667,130.833 73.8333,130.833 71.5,129.5C 73.4136,126.316 74.0803,122.649 73.5,118.5 Z"/></g>
<g><path style="opacity:1" fill="#2395d7" d="M 72.5,118.5 C 72.8333,118.5 73.1667,118.5 73.5,118.5C 74.0803,122.649 73.4136,126.316 71.5,129.5C 69.124,128.488 68.124,126.655 68.5,124C 68.1419,120.867 69.4752,119.033 72.5,118.5 Z"/></g>
<g><path style="opacity:1" fill="#7843e1" d="M 80.5,121.5 C 82.0068,124.618 81.3401,127.285 78.5,129.5C 77.5,129.5 76.5,129.5 75.5,129.5C 75.5,126.5 75.5,123.5 75.5,120.5C 77.3983,119.266 79.065,119.599 80.5,121.5 Z"/></g>
<g><path style="opacity:0.006" fill="#131729" d="M 65.5,133.5 C 64.2921,132.766 62.9587,132.433 61.5,132.5C 60.5084,132.328 59.8417,132.662 59.5,133.5C 58.8333,133.5 58.1667,133.5 57.5,133.5C 58.4919,131.974 59.9919,131.307 62,131.5C 63.6811,131.608 64.8478,132.275 65.5,133.5 Z"/></g>
<g><path style="opacity:1" fill="#e7e7e7" d="M 358.5,131.5 C 363.179,131.334 367.845,131.501 372.5,132C 373.629,136.079 373.796,140.245 373,144.5C 368.252,145.635 363.419,145.802 358.5,145C 357.194,140.501 357.194,136.001 358.5,131.5 Z"/></g>
<g><path style="opacity:0.516" fill="#1f2047" d="M 607.5,132.5 C 603.5,132.5 599.5,132.5 595.5,132.5C 594.833,132.5 594.167,132.5 593.5,132.5C 595.462,130.983 597.795,130.316 600.5,130.5C 603.205,130.316 605.538,130.983 607.5,132.5 Z"/></g>
<g><path style="opacity:1" fill="#e9e9e9" d="M 184.5,131.5 C 188.846,131.334 193.179,131.501 197.5,132C 198.167,132.667 198.833,133.333 199.5,134C 199.778,139.683 199.445,145.516 198.5,151.5C 205.886,152.106 213.219,152.94 220.5,154C 225.935,155.769 229.768,159.269 232,164.5C 242.295,207.541 226.295,222.874 184,210.5C 183.177,184.095 183.343,157.761 184.5,131.5 Z M 201.5,164.5 C 207.061,163.802 212.227,164.802 217,167.5C 217.862,169.087 218.529,170.754 219,172.5C 219.667,179.833 219.667,187.167 219,194.5C 218.267,198.234 216.1,200.734 212.5,202C 208.133,202.364 203.966,202.53 200,202.5C 199.5,202 199,201.5 198.5,201C 199.833,189.333 199.833,177.667 198.5,166C 199.737,165.768 200.737,165.268 201.5,164.5 Z"/></g>
<g><path style="opacity:1" fill="#6068f5" d="M 595.5,132.5 C 599.5,132.5 603.5,132.5 607.5,132.5C 607.5,139.167 607.5,145.833 607.5,152.5C 612.167,152.5 616.833,152.5 621.5,152.5C 622.167,152.5 622.833,152.5 623.5,152.5C 623.5,152.833 623.5,153.167 623.5,153.5C 618.156,153.334 612.823,153.501 607.5,154C 610.034,156.747 610.034,159.413 607.5,162C 611.906,163.041 616.239,163.874 620.5,164.5C 616.5,164.5 612.5,164.5 608.5,164.5C 607.167,177.167 607.167,189.833 608.5,202.5C 611.167,202.5 613.833,202.5 616.5,202.5C 618.379,201.659 620.379,201.325 622.5,201.5C 622.082,202.222 621.416,202.722 620.5,203C 616.848,203.499 613.182,203.665 609.5,203.5C 609.5,206.833 609.5,210.167 609.5,213.5C 606.236,212.676 602.902,212.342 599.5,212.5C 598.548,211.548 597.548,210.548 596.5,209.5C 595.5,183.842 595.167,158.175 595.5,132.5 Z"/></g>
<g><path style="opacity:0.658" fill="#909090" d="M 40.5,134.5 C 35.8333,134.5 31.1667,134.5 26.5,134.5C 26.5,136.5 26.5,138.5 26.5,140.5C 25.5318,138.393 25.1984,136.059 25.5,133.5C 30.6946,133.179 35.6946,133.513 40.5,134.5 Z"/></g>
<g><path style="opacity:0.649" fill="#8a8a8a" d="M 98.5,134.5 C 103.305,133.513 108.305,133.179 113.5,133.5C 113.802,136.059 113.468,138.393 112.5,140.5C 112.5,138.5 112.5,136.5 112.5,134.5C 107.833,134.5 103.167,134.5 98.5,134.5 Z"/></g>
<g><path style="opacity:1" fill="#ececec" d="M 40.5,134.5 C 43.8081,156.294 46.6414,178.294 49,200.5C 52,191.167 55,181.833 58,172.5C 58.4997,164.841 58.6664,157.174 58.5,149.5C 60.5,149.5 62.5,149.5 64.5,149.5C 64.5,159.167 64.5,168.833 64.5,178.5C 61.2384,190.618 57.5718,202.618 53.5,214.5C 47.4348,216.347 41.9348,215.347 37,211.5C 35.0426,204.632 33.876,197.632 33.5,190.5C 33.7845,188.585 33.4511,186.919 32.5,185.5C 29.9589,170.585 27.9589,155.585 26.5,140.5C 26.5,138.5 26.5,136.5 26.5,134.5C 31.1667,134.5 35.8333,134.5 40.5,134.5 Z"/></g>
<g><path style="opacity:1" fill="#1d8cc2" d="M 57.5,133.5 C 58.1667,133.5 58.8333,133.5 59.5,133.5C 59.5,135.833 59.5,138.167 59.5,140.5C 58.5041,140.586 57.6708,140.252 57,139.5C 56.2109,137.288 56.3775,135.288 57.5,133.5 Z"/></g>
<g><path style="opacity:1" fill="#eeeeee" d="M 98.5,134.5 C 103.167,134.5 107.833,134.5 112.5,134.5C 112.5,136.5 112.5,138.5 112.5,140.5C 109.902,161.188 107.068,181.855 104,202.5C 102.854,213.678 96.687,217.844 85.5,215C 82.8671,207.601 80.5337,200.101 78.5,192.5C 78.6716,191.508 78.3382,190.842 77.5,190.5C 76.4404,186.82 75.2738,183.154 74,179.5C 73.5002,169.506 73.3335,159.506 73.5,149.5C 75.5,149.5 77.5,149.5 79.5,149.5C 79.1746,157.352 79.508,165.018 80.5,172.5C 83.7411,180.897 86.4078,189.563 88.5,198.5C 88.9867,199.473 89.4867,200.473 90,201.5C 91.2367,197.94 91.7367,194.273 91.5,190.5C 91.5234,184.288 92.1901,178.288 93.5,172.5C 94.889,167.731 95.5557,162.731 95.5,157.5C 95.5633,149.573 96.5633,141.906 98.5,134.5 Z"/></g>
<g><path style="opacity:1" fill="#04c4ee" d="M 477.5,134.5 C 482.167,134.5 486.833,134.5 491.5,134.5C 491.333,155.169 491.5,175.836 492,196.5C 492.278,197.416 492.778,198.082 493.5,198.5C 494.167,198.5 494.5,198.833 494.5,199.5C 494.5,199.833 494.5,200.167 494.5,200.5C 494.5,204.5 494.5,208.5 494.5,212.5C 492.5,212.5 490.5,212.5 488.5,212.5C 480.722,209.637 476.889,203.971 477,195.5C 476.171,174.996 476.337,154.663 477.5,134.5 Z"/></g>
<g><path style="opacity:0.4" fill="#1a193f" d="M 607.5,132.5 C 608.267,133.172 608.934,134.005 609.5,135C 608.527,140.407 608.193,145.907 608.5,151.5C 613.032,151.182 617.366,151.515 621.5,152.5C 616.833,152.5 612.167,152.5 607.5,152.5C 607.5,145.833 607.5,139.167 607.5,132.5 Z"/></g>
<g><path style="opacity:1" fill="#4552b3" d="M 593.5,132.5 C 594.167,132.5 594.833,132.5 595.5,132.5C 595.167,158.175 595.5,183.842 596.5,209.5C 597.548,210.548 598.548,211.548 599.5,212.5C 596.632,212.915 594.465,211.915 593,209.5C 592.17,183.663 592.337,157.997 593.5,132.5 Z"/></g>
<g><path style="opacity:1" fill="#426ed4" d="M 61.5,132.5 C 60.9644,135.698 61.631,138.365 63.5,140.5C 62.1667,141.833 60.8333,141.833 59.5,140.5C 59.5,138.167 59.5,135.833 59.5,133.5C 59.8417,132.662 60.5084,132.328 61.5,132.5 Z"/></g>
<g><path style="opacity:0.998" fill="#7648e5" d="M 61.5,132.5 C 62.9587,132.433 64.2921,132.766 65.5,133.5C 65.6621,135.527 65.4955,137.527 65,139.5C 64.6174,140.056 64.1174,140.389 63.5,140.5C 61.631,138.365 60.9644,135.698 61.5,132.5 Z"/></g>
<g><path style="opacity:0.373" fill="#212349" d="M 76.5,141.5 C 75.5,141.5 74.5,141.5 73.5,141.5C 73.1667,141.5 72.8333,141.5 72.5,141.5C 72.1667,141.5 71.8333,141.5 71.5,141.5C 73.4172,139.149 75.0839,139.149 76.5,141.5 Z"/></g>
<g><path style="opacity:0.666" fill="#146d85" d="M 493.5,198.5 C 492.778,198.082 492.278,197.416 492,196.5C 491.5,175.836 491.333,155.169 491.5,134.5C 486.833,134.5 482.167,134.5 477.5,134.5C 477.611,133.883 477.944,133.383 478.5,133C 482.833,132.333 487.167,132.333 491.5,133C 492.167,133.667 492.833,134.333 493.5,135C 492.193,156.125 492.193,177.291 493.5,198.5 Z"/></g>
<g><path style="opacity:0.961" fill="#633dbf" d="M 73.5,141.5 C 74.5,141.5 75.5,141.5 76.5,141.5C 77.6857,142.705 77.6857,144.039 76.5,145.5C 74.5544,144.965 73.5544,143.632 73.5,141.5 Z"/></g>
<g><path style="opacity:1" fill="#1c8abf" d="M 71.5,141.5 C 71.8333,141.5 72.1667,141.5 72.5,141.5C 72.7678,143.099 72.4345,144.432 71.5,145.5C 70.1667,144.167 70.1667,142.833 71.5,141.5 Z"/></g>
<g><path style="opacity:1" fill="#425cb8" d="M 72.5,141.5 C 72.8333,141.5 73.1667,141.5 73.5,141.5C 73.5544,143.632 74.5544,144.965 76.5,145.5C 74.8333,148.167 73.1667,148.167 71.5,145.5C 72.4345,144.432 72.7678,143.099 72.5,141.5 Z"/></g>
<g><path style="opacity:0.472" fill="#6c6c6c" d="M 58.5,149.5 C 60.6074,148.532 62.9407,148.198 65.5,148.5C 65.8274,158.681 65.494,168.681 64.5,178.5C 64.5,168.833 64.5,159.167 64.5,149.5C 62.5,149.5 60.5,149.5 58.5,149.5 Z"/></g>
<g><path style="opacity:0.532" fill="#7c7c7c" d="M 73.5,149.5 C 75.6074,148.532 77.9407,148.198 80.5,148.5C 80.5,156.5 80.5,164.5 80.5,172.5C 79.508,165.018 79.1746,157.352 79.5,149.5C 77.5,149.5 75.5,149.5 73.5,149.5 Z"/></g>
<g><path style="opacity:0.069" fill="#150620" d="M 679.5,152.5 C 674.13,152.392 668.797,152.725 663.5,153.5C 666.356,151.994 669.523,151.328 673,151.5C 675.361,151.504 677.527,151.837 679.5,152.5 Z"/></g>
<g><path style="opacity:1" fill="#efefef" d="M 169.5,165.5 C 169.41,168.152 170.076,170.485 171.5,172.5C 172.8,177.6 172.8,182.6 171.5,187.5C 159.167,187.5 146.833,187.5 134.5,187.5C 134.205,189.735 134.539,191.735 135.5,193.5C 136.921,196.758 139.254,199.258 142.5,201C 151.531,201.512 160.531,201.512 169.5,201C 170.795,204.786 170.795,208.62 169.5,212.5C 130.3,222 114.467,207 122,167.5C 128.758,154.072 139.592,149.239 154.5,153C 161.577,154.846 166.577,159.013 169.5,165.5 Z M 157.5,177.5 C 150.167,177.5 142.833,177.5 135.5,177.5C 135.5,176.5 135.5,175.5 135.5,174.5C 137.787,167.02 142.787,164.187 150.5,166C 155.509,168.188 157.842,172.022 157.5,177.5 Z"/></g>
<g><path style="opacity:1" fill="#eaeaea" d="M 260.5,152.5 C 267.175,152.334 273.842,152.5 280.5,153C 282.402,153.199 283.902,154.033 285,155.5C 285.784,158.76 285.617,161.927 284.5,165C 277.833,165.333 271.167,165.667 264.5,166C 263.069,166.465 261.903,167.299 261,168.5C 258.142,177.717 257.809,187.05 260,196.5C 260.785,198.286 261.951,199.786 263.5,201C 270.676,201.872 277.843,202.372 285,202.5C 285.667,205.5 285.667,208.5 285,211.5C 276.169,215.876 267.003,216.376 257.5,213C 246.295,206.419 241.628,196.585 243.5,183.5C 241.678,168.793 247.345,158.46 260.5,152.5 Z"/></g>
<g><path style="opacity:1" fill="#eeeeee" d="M 306.5,211.5 C 306.027,210.094 305.027,209.427 303.5,209.5C 298.905,205.988 296.071,201.322 295,195.5C 294.333,187.5 294.333,179.5 295,171.5C 300.254,155.115 311.421,148.948 328.5,153C 338.64,156.089 344.473,162.923 346,173.5C 347.877,185.113 346.21,196.113 341,206.5C 330.479,215.728 318.979,217.395 306.5,211.5 Z M 315.5,165.5 C 321.898,164.053 326.731,166.053 330,171.5C 332.242,180.282 331.909,188.949 329,197.5C 325.257,201.259 320.757,202.426 315.5,201C 312.813,199.125 310.979,196.625 310,193.5C 309.333,186.833 309.333,180.167 310,173.5C 311.117,170.241 312.95,167.574 315.5,165.5 Z"/></g>
<g><path style="opacity:1" fill="#ebebeb" d="M 387.5,213.5 C 386.518,199.245 386.184,184.912 386.5,170.5C 388.667,156.643 396.834,150.643 411,152.5C 424.494,150.737 432.827,156.404 436,169.5C 436.667,183.833 436.667,198.167 436,212.5C 435.5,213 435,213.5 434.5,214C 430.442,214.767 426.442,214.6 422.5,213.5C 421.667,199.178 421.167,184.845 421,170.5C 419.457,165.722 416.124,163.722 411,164.5C 406.972,163.778 403.972,165.111 402,168.5C 401.667,183.167 401.333,197.833 401,212.5C 398.583,213.998 395.917,214.665 393,214.5C 390.967,214.494 389.134,214.161 387.5,213.5 Z"/></g>
<g><path style="opacity:0.612" fill="#172a43" d="M 550.5,152.5 C 548.621,153.341 546.621,153.675 544.5,153.5C 545.997,152.694 547.664,152.028 549.5,151.5C 550.107,151.624 550.44,151.957 550.5,152.5 Z"/></g>
<g><path style="opacity:0.451" fill="#1c3561" d="M 568.5,153.5 C 566.5,153.5 564.5,153.5 562.5,153.5C 562.5,153.167 562.5,152.833 562.5,152.5C 562.435,152.062 562.601,151.728 563,151.5C 564.948,152.109 566.782,152.776 568.5,153.5 Z"/></g>
<g><path style="opacity:0.392" fill="#381052" d="M 688.5,153.5 C 686.5,153.5 684.5,153.5 682.5,153.5C 682.5,153.167 682.5,152.833 682.5,152.5C 682.435,152.062 682.601,151.728 683,151.5C 684.948,152.109 686.782,152.776 688.5,153.5 Z"/></g>
<g><path style="opacity:1" fill="#dfdfdf" d="M 359.5,152.5 C 363.514,152.334 367.514,152.501 371.5,153C 372,153.5 372.5,154 373,154.5C 373.667,173.833 373.667,193.167 373,212.5C 368,215.167 363,215.167 358,212.5C 357.333,193.167 357.333,173.833 358,154.5C 358.717,153.956 359.217,153.289 359.5,152.5 Z"/></g>
<g><path style="opacity:0.612" fill="#1b2a4f" d="M 574.5,154.5 C 573.167,154.5 571.833,154.5 570.5,154.5C 570.5,154.167 570.5,153.833 570.5,153.5C 570.435,153.062 570.601,152.728 571,152.5C 572.302,153.085 573.469,153.751 574.5,154.5 Z"/></g>
<g><path style="opacity:0.114" fill="#1b1433" d="M 634.5,156.5 C 633.833,156.5 633.167,156.5 632.5,156.5C 630.044,154.132 627.044,153.132 623.5,153.5C 623.5,153.167 623.5,152.833 623.5,152.5C 627.631,151.825 631.297,153.158 634.5,156.5 Z"/></g>
<g><path style="opacity:0.494" fill="#161e39" d="M 578.5,155.5 C 577.209,155.737 576.209,155.404 575.5,154.5C 575.435,154.062 575.601,153.728 576,153.5C 576.995,154.066 577.828,154.733 578.5,155.5 Z"/></g>
<g><path style="opacity:0.651" fill="#331557" d="M 662.5,153.5 C 662.027,154.906 661.027,155.573 659.5,155.5C 659.973,154.094 660.973,153.427 662.5,153.5 Z"/></g>
<g><path style="opacity:1" fill="#8e31eb" d="M 679.5,152.5 C 680.5,152.5 681.5,152.5 682.5,152.5C 682.5,152.833 682.5,153.167 682.5,153.5C 678.833,153.5 675.167,153.5 671.5,153.5C 671.5,156.833 671.5,160.167 671.5,163.5C 674.059,163.198 676.393,163.532 678.5,164.5C 677.167,164.5 675.833,164.5 674.5,164.5C 671.115,163.79 668.781,164.956 667.5,168C 667.57,168.765 667.903,169.265 668.5,169.5C 669.812,171.479 671.479,173.145 673.5,174.5C 671.564,178.715 670.897,183.381 671.5,188.5C 671.167,188.5 670.833,188.5 670.5,188.5C 668.847,188.34 667.514,187.674 666.5,186.5C 666.027,185.094 665.027,184.427 663.5,184.5C 663.027,183.094 662.027,182.427 660.5,182.5C 659.833,181.167 658.833,180.167 657.5,179.5C 655.827,178.657 654.66,177.324 654,175.5C 651.72,169.787 652.22,164.453 655.5,159.5C 657.167,158.5 658.5,157.167 659.5,155.5C 661.027,155.573 662.027,154.906 662.5,153.5C 662.833,153.5 663.167,153.5 663.5,153.5C 668.797,152.725 674.13,152.392 679.5,152.5 Z"/></g>
<g><path style="opacity:1" fill="#a41ff1" d="M 682.5,153.5 C 684.5,153.5 686.5,153.5 688.5,153.5C 691.01,153.054 693.01,153.72 694.5,155.5C 694.5,158.5 694.5,161.5 694.5,164.5C 690.833,164.5 687.167,164.5 683.5,164.5C 681.833,164.5 680.167,164.5 678.5,164.5C 676.393,163.532 674.059,163.198 671.5,163.5C 671.5,160.167 671.5,156.833 671.5,153.5C 675.167,153.5 678.833,153.5 682.5,153.5 Z"/></g>
<g><path style="opacity:1" fill="#308fe5" d="M 562.5,152.5 C 562.5,152.833 562.5,153.167 562.5,153.5C 559.15,153.335 555.817,153.502 552.5,154C 553.7,157.131 553.7,160.298 552.5,163.5C 552.5,163.833 552.5,164.167 552.5,164.5C 548.167,165.5 545.5,168.167 544.5,172.5C 543.167,179.167 543.167,185.833 544.5,192.5C 544.5,193.167 544.5,193.833 544.5,194.5C 544.241,198.237 545.907,200.57 549.5,201.5C 550.959,201.433 552.292,201.766 553.5,202.5C 555.833,202.5 558.167,202.5 560.5,202.5C 556.648,203.644 552.648,203.644 548.5,202.5C 548.5,206.167 548.5,209.833 548.5,213.5C 554.833,213.5 561.167,213.5 567.5,213.5C 559.567,216.16 551.567,215.994 543.5,213C 541.416,212.303 539.749,211.136 538.5,209.5C 539.831,201.528 540.498,193.194 540.5,184.5C 540.473,175.455 540.14,166.455 539.5,157.5C 539.833,156.833 540.167,156.167 540.5,155.5C 541.514,154.326 542.847,153.66 544.5,153.5C 546.621,153.675 548.621,153.341 550.5,152.5C 554.468,151.234 558.468,151.234 562.5,152.5 Z"/></g>
<g><path style="opacity:1" fill="#428af8" d="M 562.5,153.5 C 564.5,153.5 566.5,153.5 568.5,153.5C 569.167,153.5 569.833,153.5 570.5,153.5C 570.5,153.833 570.5,154.167 570.5,154.5C 569.761,154.369 569.094,154.536 568.5,155C 569.475,174.633 569.808,194.133 569.5,213.5C 568.833,213.5 568.167,213.5 567.5,213.5C 561.167,213.5 554.833,213.5 548.5,213.5C 548.5,209.833 548.5,206.167 548.5,202.5C 552.648,203.644 556.648,203.644 560.5,202.5C 562.167,202.5 563.833,202.5 565.5,202.5C 565.5,189.833 565.5,177.167 565.5,164.5C 564.5,164.5 563.5,164.5 562.5,164.5C 561.5,164.5 560.5,164.5 559.5,164.5C 557.393,163.532 555.059,163.198 552.5,163.5C 553.7,160.298 553.7,157.131 552.5,154C 555.817,153.502 559.15,153.335 562.5,153.5 Z"/></g>
<g><path style="opacity:1" fill="#4577e4" d="M 570.5,154.5 C 571.833,154.5 573.167,154.5 574.5,154.5C 574.833,154.5 575.167,154.5 575.5,154.5C 576.209,155.404 577.209,155.737 578.5,155.5C 579.117,155.611 579.617,155.944 580,156.5C 580.667,174.5 580.667,192.5 580,210.5C 576.761,212.352 573.261,213.352 569.5,213.5C 569.808,194.133 569.475,174.633 568.5,155C 569.094,154.536 569.761,154.369 570.5,154.5 Z"/></g>
<g><path style="opacity:1" fill="#7354f2" d="M 623.5,153.5 C 627.044,153.132 630.044,154.132 632.5,156.5C 631.338,173.328 631.172,190.328 632,207.5C 632.333,191.167 632.667,174.833 633,158.5C 632.844,175.863 633.678,192.863 635.5,209.5C 633.102,211.974 630.102,213.308 626.5,213.5C 620.833,213.5 615.167,213.5 609.5,213.5C 609.5,210.167 609.5,206.833 609.5,203.5C 613.182,203.665 616.848,203.499 620.5,203C 621.416,202.722 622.082,202.222 622.5,201.5C 622.833,201.5 623.167,201.5 623.5,201.5C 627.093,200.57 628.759,198.237 628.5,194.5C 629.656,187.011 629.822,179.345 629,171.5C 628.855,168.509 627.355,166.842 624.5,166.5C 623.508,166.672 622.842,166.338 622.5,165.5C 622.158,164.662 621.492,164.328 620.5,164.5C 616.239,163.874 611.906,163.041 607.5,162C 610.034,159.413 610.034,156.747 607.5,154C 612.823,153.501 618.156,153.334 623.5,153.5 Z"/></g>
<g><path style="opacity:1" fill="#7746e8" d="M 632.5,156.5 C 633.167,156.5 633.833,156.5 634.5,156.5C 635.833,158.5 637.5,160.167 639.5,161.5C 639.427,163.027 640.094,164.027 641.5,164.5C 641.259,166.898 641.926,168.898 643.5,170.5C 644.812,178.068 644.812,185.735 643.5,193.5C 642.699,195.042 642.366,196.708 642.5,198.5C 641.429,202.976 639.096,206.643 635.5,209.5C 633.678,192.863 632.844,175.863 633,158.5C 632.667,174.833 632.333,191.167 632,207.5C 631.172,190.328 631.338,173.328 632.5,156.5 Z"/></g>
<g><path style="opacity:0.004" fill="#160d26" d="M 634.5,156.5 C 637.167,157.167 638.833,158.833 639.5,161.5C 637.5,160.167 635.833,158.5 634.5,156.5 Z"/></g>
<g><path style="opacity:0.675" fill="#3e1c67" d="M 659.5,155.5 C 658.5,157.167 657.167,158.5 655.5,159.5C 655.833,157.167 657.167,155.833 659.5,155.5 Z"/></g>
<g><path style="opacity:0.283" fill="#340e49" d="M 694.5,155.5 C 696.76,158.521 697.093,161.854 695.5,165.5C 691.298,165.817 687.298,165.483 683.5,164.5C 687.167,164.5 690.833,164.5 694.5,164.5C 694.5,161.5 694.5,158.5 694.5,155.5 Z"/></g>
<g><path style="opacity:1" fill="#206093" d="M 540.5,155.5 C 540.167,156.167 539.833,156.833 539.5,157.5C 537.393,159.727 535.06,161.727 532.5,163.5C 534.167,159.833 536.833,157.167 540.5,155.5 Z"/></g>
<g><path style="opacity:1" fill="#289bec" d="M 539.5,157.5 C 540.14,166.455 540.473,175.455 540.5,184.5C 540.498,193.194 539.831,201.528 538.5,209.5C 534.621,207.794 532.121,204.794 531,200.5C 528.464,191.586 527.964,182.586 529.5,173.5C 531.076,170.345 532.076,167.012 532.5,163.5C 535.06,161.727 537.393,159.727 539.5,157.5 Z"/></g>
<g><path style="opacity:0.524" fill="#24416e" d="M 552.5,164.5 C 552.5,164.167 552.5,163.833 552.5,163.5C 555.059,163.198 557.393,163.532 559.5,164.5C 557.302,165.067 554.969,165.067 552.5,164.5 Z"/></g>
<g><path style="opacity:0.129" fill="#150d27" d="M 639.5,161.5 C 640.906,161.973 641.573,162.973 641.5,164.5C 640.094,164.027 639.427,163.027 639.5,161.5 Z"/></g>
<g><path style="opacity:0.969" fill="#a9a9a9" d="M 95.5,157.5 C 95.5557,162.731 94.889,167.731 93.5,172.5C 93.4443,167.269 94.111,162.269 95.5,157.5 Z"/></g>
<g><path style="opacity:0.01" fill="#03020e" d="M 608.5,164.5 C 612.5,164.5 616.5,164.5 620.5,164.5C 621.492,164.328 622.158,164.662 622.5,165.5C 617.737,165.226 613.07,165.559 608.5,166.5C 608.5,165.833 608.5,165.167 608.5,164.5 Z"/></g>
<g><path style="opacity:0.157" fill="#0c1528" d="M 562.5,164.5 C 563.5,164.5 564.5,164.5 565.5,164.5C 565.5,177.167 565.5,189.833 565.5,202.5C 563.833,202.5 562.167,202.5 560.5,202.5C 558.167,202.5 555.833,202.5 553.5,202.5C 556.962,201.518 560.629,201.185 564.5,201.5C 565.116,188.917 564.449,176.584 562.5,164.5 Z"/></g>
<g><path style="opacity:0.41" fill="#212052" d="M 608.5,164.5 C 608.5,165.167 608.5,165.833 608.5,166.5C 608.795,177.445 608.795,188.445 608.5,199.5C 608.5,200.5 608.5,201.5 608.5,202.5C 607.167,189.833 607.167,177.167 608.5,164.5 Z"/></g>
<g><path style="opacity:0.006" fill="#0c0213" d="M 674.5,164.5 C 671.433,164.789 669.433,166.456 668.5,169.5C 667.903,169.265 667.57,168.765 667.5,168C 668.781,164.956 671.115,163.79 674.5,164.5 Z"/></g>
<g><path style="opacity:1" fill="#251b4a" d="M 624.5,166.5 C 627.355,166.842 628.855,168.509 629,171.5C 629.822,179.345 629.656,187.011 628.5,194.5C 628.666,187.492 628.5,180.492 628,173.5C 627.347,170.861 626.18,168.527 624.5,166.5 Z"/></g>
<g><path style="opacity:0.675" fill="#241640" d="M 641.5,164.5 C 642.738,166.214 643.405,168.214 643.5,170.5C 641.926,168.898 641.259,166.898 641.5,164.5 Z"/></g>
<g><path style="opacity:0.945" fill="#939393" d="M 169.5,165.5 C 170.924,167.515 171.59,169.848 171.5,172.5C 170.076,170.485 169.41,168.152 169.5,165.5 Z"/></g>
<g><path style="opacity:0.655" fill="#184362" d="M 532.5,163.5 C 532.076,167.012 531.076,170.345 529.5,173.5C 528.957,173.44 528.624,173.107 528.5,172.5C 529.469,169.231 530.802,166.231 532.5,163.5 Z"/></g>
<g><path style="opacity:0.229" fill="#3e3e3e" d="M 386.5,170.5 C 386.184,184.912 386.518,199.245 387.5,213.5C 386.169,206.699 385.503,199.533 385.5,192C 385.5,184.659 385.834,177.492 386.5,170.5 Z"/></g>
<g><path style="opacity:0.031" fill="#190a22" d="M 668.5,169.5 C 672.221,171.354 675.554,173.687 678.5,176.5C 676.833,175.833 675.167,175.167 673.5,174.5C 671.479,173.145 669.812,171.479 668.5,169.5 Z"/></g>
<g><path style="opacity:0.244" fill="#4d4d4d" d="M 135.5,174.5 C 135.5,175.5 135.5,176.5 135.5,177.5C 142.833,177.5 150.167,177.5 157.5,177.5C 150.018,178.492 142.352,178.825 134.5,178.5C 134.232,176.901 134.566,175.568 135.5,174.5 Z"/></g>
<g><path style="opacity:0.204" fill="#0d253f" d="M 544.5,172.5 C 544.639,178.986 544.639,185.653 544.5,192.5C 543.167,185.833 543.167,179.167 544.5,172.5 Z"/></g>
<g><path style="opacity:1" fill="#9b24eb" d="M 673.5,174.5 C 675.167,175.167 676.833,175.833 678.5,176.5C 679.492,176.328 680.158,176.662 680.5,177.5C 680.821,179.048 681.821,179.715 683.5,179.5C 684.167,179.833 684.833,180.167 685.5,180.5C 685.973,181.906 686.973,182.573 688.5,182.5C 690.167,183.5 691.5,184.833 692.5,186.5C 692.738,188.404 693.738,189.738 695.5,190.5C 695.5,190.833 695.5,191.167 695.5,191.5C 695.5,195.5 695.5,199.5 695.5,203.5C 694.079,208.09 691.079,211.256 686.5,213C 681.141,215.176 675.807,215.676 670.5,214.5C 667.375,213.521 664.042,213.187 660.5,213.5C 660.167,213.5 659.833,213.5 659.5,213.5C 658.432,212.566 657.099,212.232 655.5,212.5C 654.586,209.272 654.253,205.939 654.5,202.5C 661.167,202.5 667.833,202.5 674.5,202.5C 676.5,201.833 678.5,201.167 680.5,200.5C 682.432,196.387 681.098,193.72 676.5,192.5C 675.508,192.672 674.842,192.338 674.5,191.5C 673.833,190.167 672.833,189.167 671.5,188.5C 670.897,183.381 671.564,178.715 673.5,174.5 Z"/></g>
<g><path style="opacity:0.988" fill="#4e1974" d="M 680.5,177.5 C 681.71,177.932 682.71,178.599 683.5,179.5C 681.821,179.715 680.821,179.048 680.5,177.5 Z"/></g>
<g><path style="opacity:0.012" fill="#1d0e2c" d="M 657.5,179.5 C 658.833,180.167 659.833,181.167 660.5,182.5C 658.5,182.5 657.5,181.5 657.5,179.5 Z"/></g>
<g><path style="opacity:0.008" fill="#15061a" d="M 685.5,180.5 C 687.027,180.427 688.027,181.094 688.5,182.5C 686.973,182.573 685.973,181.906 685.5,180.5 Z"/></g>
<g><path style="opacity:0.247" fill="#220f38" d="M 660.5,182.5 C 662.027,182.427 663.027,183.094 663.5,184.5C 661.973,184.573 660.973,183.906 660.5,182.5 Z"/></g>
<g><path style="opacity:0.192" fill="#1a0a29" d="M 663.5,184.5 C 665.027,184.427 666.027,185.094 666.5,186.5C 664.973,186.573 663.973,185.906 663.5,184.5 Z"/></g>
<g><path style="opacity:0.329" fill="#444444" d="M 32.5,185.5 C 33.4511,186.919 33.7845,188.585 33.5,190.5C 31.4618,189.144 31.1285,187.477 32.5,185.5 Z"/></g>
<g><path style="opacity:0.795" fill="#bdbdbd" d="M 171.5,187.5 C 159.678,188.495 147.678,188.828 135.5,188.5C 135.5,190.167 135.5,191.833 135.5,193.5C 134.539,191.735 134.205,189.735 134.5,187.5C 146.833,187.5 159.167,187.5 171.5,187.5 Z"/></g>
<g><path style="opacity:0.702" fill="#4a1068" d="M 692.5,186.5 C 694.262,187.262 695.262,188.596 695.5,190.5C 693.738,189.738 692.738,188.404 692.5,186.5 Z"/></g>
<g><path style="opacity:0.431" fill="#2f1348" d="M 670.5,188.5 C 670.833,188.5 671.167,188.5 671.5,188.5C 672.833,189.167 673.833,190.167 674.5,191.5C 672.596,191.262 671.262,190.262 670.5,188.5 Z"/></g>
<g><path style="opacity:0.007" fill="#010203" d="M 64.5,191.5 C 66.7257,190.244 69.059,190.244 71.5,191.5C 70.8333,192.833 69.8333,193.833 68.5,194.5C 67.7377,192.738 66.4044,191.738 64.5,191.5 Z"/></g>
<g><path style="opacity:0.349" fill="#313131" d="M 77.5,190.5 C 78.3382,190.842 78.6716,191.508 78.5,192.5C 76.8946,191.994 76.5613,191.327 77.5,190.5 Z"/></g>
<g><path style="opacity:0.258" fill="#9b1989" d="M 71.5,191.5 C 74.2921,192.392 75.6254,194.392 75.5,197.5C 74.8333,197.5 74.5,197.833 74.5,198.5C 72.4862,198.608 70.8195,197.942 69.5,196.5C 69.1667,195.833 68.8333,195.167 68.5,194.5C 69.8333,193.833 70.8333,192.833 71.5,191.5 Z"/></g>
<g><path style="opacity:0.196" fill="#170620" d="M 676.5,192.5 C 681.098,193.72 682.432,196.387 680.5,200.5C 680.657,199.127 680.49,197.793 680,196.5C 678.624,195.295 677.458,193.962 676.5,192.5 Z"/></g>
<g><path style="opacity:1" fill="#155466" d="M 64.5,191.5 C 64.9465,194.01 64.2798,196.01 62.5,197.5C 62.8751,195.302 63.5418,193.302 64.5,191.5 Z"/></g>
<g><path style="opacity:0.353" fill="#1e1234" d="M 643.5,193.5 C 644.678,195.338 644.345,197.005 642.5,198.5C 642.366,196.708 642.699,195.042 643.5,193.5 Z"/></g>
<g><path style="opacity:0.745" fill="#401159" d="M 695.5,191.5 C 696.391,192.261 697.058,193.261 697.5,194.5C 697.377,196.622 697.377,198.789 697.5,201C 696.934,201.995 696.267,202.828 695.5,203.5C 695.5,199.5 695.5,195.5 695.5,191.5 Z"/></g>
<g><path style="opacity:0.973" fill="#969696" d="M 91.5,190.5 C 91.7367,194.273 91.2367,197.94 90,201.5C 89.4867,200.473 88.9867,199.473 88.5,198.5C 89.1174,198.389 89.6174,198.056 90,197.5C 90.1862,194.964 90.6862,192.631 91.5,190.5 Z"/></g>
<g><path style="opacity:0.741" fill="#1c4268" d="M 544.5,194.5 C 545.717,197.067 547.384,199.4 549.5,201.5C 545.907,200.57 544.241,198.237 544.5,194.5 Z"/></g>
<g><path style="opacity:0.006" fill="#0b171c" d="M 62.5,198.5 C 62.2041,200.403 61.5375,202.07 60.5,203.5C 60.1201,201.302 60.7868,199.635 62.5,198.5 Z"/></g>
<g><path style="opacity:0.537" fill="#2b2054" d="M 628.5,194.5 C 628.759,198.237 627.093,200.57 623.5,201.5C 625.424,199.305 627.091,196.972 628.5,194.5 Z"/></g>
<g><path style="opacity:0.051" fill="#0a1d26" d="M 494.5,200.5 C 494.5,200.167 494.5,199.833 494.5,199.5C 496.027,199.427 497.027,200.094 497.5,201.5C 496.391,201.443 495.391,201.11 494.5,200.5 Z"/></g>
<g><path style="opacity:0.669" fill="#1b4f69" d="M 521.5,201.5 C 521.5,201.833 521.5,202.167 521.5,202.5C 517.833,202.5 514.167,202.5 510.5,202.5C 505.968,202.818 501.634,202.485 497.5,201.5C 505.719,200.418 513.719,200.418 521.5,201.5 Z"/></g>
<g><path style="opacity:0.009" fill="#010007" d="M 608.5,199.5 C 611.028,200.935 613.695,201.935 616.5,202.5C 613.833,202.5 611.167,202.5 608.5,202.5C 608.5,201.5 608.5,200.5 608.5,199.5 Z"/></g>
<g><path style="opacity:1" fill="#14b9f2" d="M 64.5,191.5 C 66.4044,191.738 67.7377,192.738 68.5,194.5C 68.8333,195.167 69.1667,195.833 69.5,196.5C 70.7846,198.806 70.1179,200.639 67.5,202C 65.04,203.458 62.8734,205.291 61,207.5C 60.5172,206.552 60.3505,205.552 60.5,204.5C 60.5,204.167 60.5,203.833 60.5,203.5C 61.5375,202.07 62.2041,200.403 62.5,198.5C 62.5,198.167 62.5,197.833 62.5,197.5C 64.2798,196.01 64.9465,194.01 64.5,191.5 Z"/></g>
<g><path style="opacity:1" fill="#10b8ef" d="M 494.5,200.5 C 495.391,201.11 496.391,201.443 497.5,201.5C 501.634,202.485 505.968,202.818 510.5,202.5C 509.42,205.743 509.253,209.076 510,212.5C 510.995,213.066 511.828,213.733 512.5,214.5C 504.209,216.03 496.209,215.363 488.5,212.5C 490.5,212.5 492.5,212.5 494.5,212.5C 494.5,208.5 494.5,204.5 494.5,200.5 Z"/></g>
<g><path style="opacity:1" fill="#1bacee" d="M 510.5,202.5 C 514.167,202.5 517.833,202.5 521.5,202.5C 522.477,205.287 522.81,208.287 522.5,211.5C 522.389,212.117 522.056,212.617 521.5,213C 518.522,213.696 515.522,214.196 512.5,214.5C 511.828,213.733 510.995,213.066 510,212.5C 509.253,209.076 509.42,205.743 510.5,202.5 Z"/></g>
<g><path style="opacity:0.681" fill="#2e174b" d="M 674.5,202.5 C 667.833,202.5 661.167,202.5 654.5,202.5C 654.253,205.939 654.586,209.272 655.5,212.5C 654.213,211.129 653.547,209.295 653.5,207C 653.536,204.906 653.869,202.906 654.5,201C 661.325,200.954 667.991,201.454 674.5,202.5 Z"/></g>
<g><path style="opacity:1" fill="#2e98ef" d="M 69.5,196.5 C 70.8195,197.942 72.4862,198.608 74.5,198.5C 74.631,199.239 74.4643,199.906 74,200.5C 70.1342,203.335 66.6342,206.502 63.5,210C 61.9221,211.094 60.2554,211.928 58.5,212.5C 58.5,212.167 58.5,211.833 58.5,211.5C 58.7215,208.933 59.3882,206.599 60.5,204.5C 60.3505,205.552 60.5172,206.552 61,207.5C 62.8734,205.291 65.04,203.458 67.5,202C 70.1179,200.639 70.7846,198.806 69.5,196.5 Z"/></g>
<g><path style="opacity:1" fill="#4476df" d="M 75.5,197.5 C 76.871,199.936 77.871,202.603 78.5,205.5C 76.5976,204.489 74.5976,204.322 72.5,205C 68.8998,207.429 66.2332,210.596 64.5,214.5C 61.8965,215.215 59.5632,215.215 57.5,214.5C 57.8333,213.833 58.1667,213.167 58.5,212.5C 60.2554,211.928 61.9221,211.094 63.5,210C 66.6342,206.502 70.1342,203.335 74,200.5C 74.4643,199.906 74.631,199.239 74.5,198.5C 74.5,197.833 74.8333,197.5 75.5,197.5 Z"/></g>
<g><path style="opacity:0.099" fill="#00101b" d="M 521.5,202.5 C 521.5,202.167 521.5,201.833 521.5,201.5C 522.777,202.694 523.444,204.36 523.5,206.5C 523.493,208.369 523.16,210.036 522.5,211.5C 522.81,208.287 522.477,205.287 521.5,202.5 Z"/></g>
<g><path style="opacity:1" fill="#5f67f2" d="M 78.5,205.5 C 79.1098,206.391 79.4431,207.391 79.5,208.5C 78.5416,208.047 77.7083,207.381 77,206.5C 74.2709,209.399 71.4376,212.066 68.5,214.5C 67.1667,214.5 65.8333,214.5 64.5,214.5C 66.2332,210.596 68.8998,207.429 72.5,205C 74.5976,204.322 76.5976,204.489 78.5,205.5 Z"/></g>
<g><path style="opacity:0.525" fill="#6a6a6a" d="M 303.5,209.5 C 305.027,209.427 306.027,210.094 306.5,211.5C 304.973,211.573 303.973,210.906 303.5,209.5 Z"/></g>
<g><path style="opacity:1" fill="#8049f3" d="M 79.5,208.5 C 79.5172,210.565 79.8505,212.565 80.5,214.5C 76.5,214.5 72.5,214.5 68.5,214.5C 71.4376,212.066 74.2709,209.399 77,206.5C 77.7083,207.381 78.5416,208.047 79.5,208.5 Z"/></g>
<g><path style="opacity:0.69" fill="#431667" d="M 79.5,208.5 C 81.1511,210.402 81.4845,212.402 80.5,214.5C 79.8505,212.565 79.5172,210.565 79.5,208.5 Z"/></g>
<g><path style="opacity:0.325" fill="#0f1929" d="M 58.5,211.5 C 58.5,211.833 58.5,212.167 58.5,212.5C 58.1667,213.167 57.8333,213.833 57.5,214.5C 56.2848,213.221 56.6182,212.221 58.5,211.5 Z"/></g>
<g><path style="opacity:0.537" fill="#26123f" d="M 655.5,212.5 C 657.099,212.232 658.432,212.566 659.5,213.5C 659.565,213.938 659.399,214.272 659,214.5C 657.698,213.915 656.531,213.249 655.5,212.5 Z"/></g>
<g><path style="opacity:0.932" fill="#453d99" d="M 599.5,212.5 C 602.902,212.342 606.236,212.676 609.5,213.5C 615.167,213.5 620.833,213.5 626.5,213.5C 623.702,214.474 620.702,215.14 617.5,215.5C 611.273,215.02 605.273,214.02 599.5,212.5 Z"/></g>
<g><path style="opacity:0.812" fill="#4b1c77" d="M 660.5,213.5 C 664.042,213.187 667.375,213.521 670.5,214.5C 669.883,214.611 669.383,214.944 669,215.5C 666.061,214.872 663.228,214.205 660.5,213.5 Z"/></g>
</svg>
